<?xml version="1.0" encoding="utf-8"?>
<!-- Generator: Adobe Illustrator 16.0.0, SVG Export Plug-In . SVG Version: 6.00 Build 0)  -->
<!DOCTYPE svg PUBLIC "-//W3C//DTD SVG 1.1//EN" "http://www.w3.org/Graphics/SVG/1.1/DTD/svg11.dtd">
<svg version="1.1" id="Layer_1" xmlns="http://www.w3.org/2000/svg" xmlns:xlink="http://www.w3.org/1999/xlink" x="0px" y="0px"
	 width="100px" height="300px" viewBox="0 0 100 300" enable-background="new 0 0 100 300" xml:space="preserve">
<g>
	<circle fill="#BF2026" cx="50.001" cy="27.001" r="17.001"/>
	<path fill="#BF2026" d="M57.21,45.16H42.787c-12,0-21.765,9.764-21.765,21.766v17.645l0.044,0.276l1.217,0.38
		C33.736,88.804,43.688,90,51.879,90c15.996,0,25.27-4.563,25.844-4.853l1.136-0.577h0.119V66.926
		C78.978,54.924,69.216,45.16,57.21,45.16z M53.359,79.402l-3.111,4.555c-0.042,0.062-0.11,0.099-0.185,0.099
		c-0.002,0-0.004,0-0.006,0c-0.073,0-0.144-0.039-0.184-0.104l-2.891-4.558c-0.025-0.039-0.037-0.085-0.035-0.134l1.447-22.123
		c0.008-0.118,0.104-0.206,0.223-0.206h3.001c0.116,0,0.214,0.088,0.224,0.206l1.555,22.121
		C53.402,79.312,53.387,79.36,53.359,79.402z M51.952,56.262h-3.568l-3.101-6.41c0-0.615,0.498-1.111,1.113-1.111h7.448
		c0.613,0,1.111,0.496,1.111,1.111L51.952,56.262z"/>
</g>
<g>
	<polygon fill="#27539F" points="80.887,181.029 80.988,151.556 90,142.48 83.229,130.764 81.264,130.761 81.27,140.585 
		71.666,140.589 71.666,130.764 69.7,130.757 62.939,142.477 71.71,151.305 71.595,151.305 71.533,169.995 66.854,164.451 
		58.144,162.512 58.144,175.133 53.85,175.133 53.85,161.562 51.321,161.008 48.14,157.814 43.439,162.912 43.453,163.027 
		39.494,163.027 39.504,162.912 34.791,157.814 31.611,161.008 29.097,161.562 29.097,175.133 24.807,175.133 24.807,162.512 
		16.097,164.451 10,186.31 85.307,186.31 80.847,181.022 	"/>
	<path fill="#27539F" d="M41.494,158.188c7.154,0,13.014-9.974,14.454-18.831H27.033C28.45,148.282,34.336,158.188,41.494,158.188z"
		/>
	<path fill="#27539F" d="M61.024,133.725h-3.386c-0.562-8.572-2.328-20.034-16.166-20.034c-13.844,0-15.603,11.462-16.179,20.034
		h-3.548v2.486h39.278V133.725z"/>
</g>
<path fill="#206432" d="M89.966,264.327c-1.646-7.115-10.015-13.143-21.676-16.271c0.034-0.458,0.052-0.922,0.052-1.39
	c0-10.128-8.213-18.342-18.342-18.342c-10.128,0-18.341,8.212-18.341,18.34c0,0.47,0.017,0.932,0.052,1.391
	c-11.661,3.127-20.029,9.155-21.677,16.27c-0.09,0.384,0.001,0.771,0.245,1.078c0.244,0.307,0.615,0.473,1.006,0.473h7.142
	c0,3.226,2.594,5.799,5.795,5.799s5.797-2.573,5.797-5.799h14.183c0,3.226,2.594,5.799,5.797,5.799c3.205,0,5.798-2.573,5.798-5.799
	h14.184c0,3.226,2.595,5.799,5.797,5.799c3.201,0,5.796-2.573,5.796-5.799h7.143c0.392,0,0.762-0.166,1.006-0.473
	C89.963,265.098,90.057,264.709,89.966,264.327z"/>
</svg>
