<?xml version="1.0" encoding="utf-8"?>
<!-- Generator: Adobe Illustrator 16.0.0, SVG Export Plug-In . SVG Version: 6.00 Build 0)  -->
<!DOCTYPE svg PUBLIC "-//W3C//DTD SVG 1.1//EN" "http://www.w3.org/Graphics/SVG/1.1/DTD/svg11.dtd">
<svg version="1.1" id="Layer_1" xmlns="http://www.w3.org/2000/svg" xmlns:xlink="http://www.w3.org/1999/xlink" x="0px" y="0px"
	 width="50px" height="50px" viewBox="0 0 50 50" enable-background="new 0 0 50 50" xml:space="preserve">
<g>
	<path fill="#BF2026" d="M42.756,38.259c-0.671-1.186-2.235-3.972-3.849-6.348c-0.414-0.607-0.823-1.175-1.219-1.711H12.312
		c-0.395,0.536-0.802,1.104-1.216,1.711c-1.616,2.376-3.181,5.162-3.847,6.348l-0.181,0.319c-0.687,1.216-0.695,2.872-0.021,4.029
		c0.514,0.876,1.331,1.364,2.31,1.364h2.221h8.232h10.378h8.284h2.172c0.976,0,1.795-0.488,2.311-1.364
		c0.669-1.157,0.663-2.813-0.026-4.029L42.756,38.259z"/>
	<path fill="#010101" d="M46.614,37.98l-0.304-0.532c-1.14-2.027-3.798-6.763-6.546-10.803c-0.92-1.356-1.849-2.622-2.687-3.768
		c-1.348-1.833-3.018-4.109-3.035-4.786c0.103-2.972,0.032-9.999,0.01-12.168h1.751V2.846h-22.18v3.08h2.327
		c-0.029,2.169-0.096,9.195,0.009,12.164c-0.021,0.679-1.69,2.956-3.037,4.79c-0.84,1.146-1.767,2.412-2.686,3.767
		c-2.75,4.042-5.408,8.774-6.547,10.802l-0.304,0.536c-1.17,2.064-1.182,4.884-0.036,6.855c0.871,1.491,2.271,2.314,3.93,2.314
		h35.438h0.004c1.657,0,3.055-0.823,3.923-2.314C47.796,42.868,47.784,40.044,46.614,37.98z M44.446,43.553
		c-0.404,0.697-0.987,1.053-1.728,1.053H7.281c-0.737,0-1.321-0.353-1.724-1.053c-0.694-1.183-0.67-3.041,0.05-4.315l0.308-0.55
		c1.118-1.992,3.742-6.663,6.43-10.612c0.902-1.329,1.81-2.567,2.636-3.694c2.348-3.204,3.572-4.939,3.527-6.377
		c-0.092-2.644-0.044-8.792-0.016-11.446h13.02c0.024,2.656,0.079,8.803-0.015,11.446c-0.05,1.439,1.176,3.173,3.524,6.377
		c0.824,1.127,1.732,2.365,2.638,3.694c2.687,3.949,5.309,8.62,6.431,10.612l0.304,0.55C45.117,40.512,45.138,42.37,44.446,43.553z"
		/>
</g>
<circle fill="#5064AE" cx="22.021" cy="25.341" r="3.082"/>
<circle fill="#BF2026" cx="28.276" cy="23.36" r="2.421"/>
<circle fill="#339345" cx="23.673" cy="18.847" r="1.431"/>
</svg>
