<?xml version="1.0" encoding="utf-8"?>
<!-- Generator: Adobe Illustrator 16.0.0, SVG Export Plug-In . SVG Version: 6.00 Build 0)  -->
<!DOCTYPE svg PUBLIC "-//W3C//DTD SVG 1.1//EN" "http://www.w3.org/Graphics/SVG/1.1/DTD/svg11.dtd">
<svg version="1.1" id="Layer_1" xmlns="http://www.w3.org/2000/svg" xmlns:xlink="http://www.w3.org/1999/xlink" x="0px" y="0px"
	 width="50px" height="50px" viewBox="0 0 50 50" enable-background="new 0 0 50 50" xml:space="preserve">
<path fill="#555555" d="M40.914,8.497c-2.53-2.524-5.498-4.32-8.671-5.394V9.89c1.526,0.759,2.974,1.748,4.239,3.021
	c6.338,6.338,6.338,16.646,0,22.979c-6.332,6.324-16.633,6.324-22.979,0c-6.331-6.342-6.331-16.644,0-22.979
	c0.015-0.02,0.066-0.051,0.088-0.081h0.006l3.755,3.749l-0.02-11.903L5.435,4.66l3.738,3.738C9.151,8.437,9.117,8.476,9.087,8.497
	c-8.784,8.781-8.784,23.028,0,31.808c8.797,8.789,23.031,8.789,31.827,0C49.689,31.525,49.699,17.278,40.914,8.497z"/>
</svg>
