<?xml version="1.0" encoding="utf-8"?>
<!-- Generator: Adobe Illustrator 16.0.0, SVG Export Plug-In . SVG Version: 6.00 Build 0)  -->
<!DOCTYPE svg PUBLIC "-//W3C//DTD SVG 1.1//EN" "http://www.w3.org/Graphics/SVG/1.1/DTD/svg11.dtd">
<svg version="1.1" id="Layer_1" xmlns="http://www.w3.org/2000/svg" xmlns:xlink="http://www.w3.org/1999/xlink" x="0px" y="0px"
	 width="1024px" height="768px" viewBox="0 0 1024 768" enable-background="new 0 0 1024 768" xml:space="preserve">
<g>
	<circle fill="#BF2328" cx="512.003" cy="80.941" r="58.441"/>
	<path fill="#BF2328" d="M536.783,143.363h-49.579c-41.25,0-74.817,33.563-74.817,74.82v60.653l0.15,0.953l4.185,1.303
		c39.369,12.3,73.58,16.408,101.735,16.408c54.987,0,86.864-15.684,88.839-16.684l3.906-1.98h0.41v-60.653
		C611.613,176.926,578.054,143.363,536.783,143.363z M523.547,261.071l-10.695,15.656c-0.145,0.215-0.378,0.343-0.636,0.343
		c-0.007,0-0.014,0-0.021,0c-0.252,0-0.495-0.134-0.633-0.359l-9.938-15.667c-0.086-0.134-0.127-0.295-0.121-0.463l4.975-76.048
		c0.027-0.403,0.358-0.705,0.768-0.705h10.315c0.399,0,0.735,0.302,0.77,0.705l5.345,76.042
		C523.695,260.762,523.642,260.923,523.547,261.071z M518.71,181.525h-12.267l-10.658-22.033c0-2.115,1.711-3.819,3.825-3.819
		h25.602c2.107,0,3.819,1.704,3.819,3.819L518.71,181.525z"/>
</g>
</svg>
