<?xml version="1.0" encoding="utf-8"?>
<!-- Generator: Adobe Illustrator 16.0.0, SVG Export Plug-In . SVG Version: 6.00 Build 0)  -->
<!DOCTYPE svg PUBLIC "-//W3C//DTD SVG 1.1//EN" "http://www.w3.org/Graphics/SVG/1.1/DTD/svg11.dtd">
<svg version="1.1" id="Layer_1" xmlns="http://www.w3.org/2000/svg" xmlns:xlink="http://www.w3.org/1999/xlink" x="0px" y="0px"
	 width="1024px" height="768px" viewBox="0 0 1024 768" enable-background="new 0 0 1024 768" xml:space="preserve">
<g>
	<path fill="#565656" d="M428.244,68.891c-1.147-4.528-5.749-7.268-10.277-6.122c-4.531,1.148-7.271,5.75-6.123,10.279
		l55.269,218.068c0.97,3.832,4.414,6.383,8.194,6.383c0.689,0,1.388-0.084,2.086-0.261c4.527-1.147,7.269-5.75,6.121-10.279
		L428.244,68.891z"/>
	<path fill="#565656" d="M612.211,130.312c-9.008-33.259-18.023-66.515-27.033-99.773c-0.977-3.601-2.688-7.462-9.123-7.849
		c-50.652-3.669-83.914,46.775-134.568,43.106c-3.998-0.493-6.567,1.589-5.591,5.188c9.009,33.258,17.95,66.536,27.032,99.774
		c1.457,5.333,5.125,7.355,9.124,7.847c50.655,3.669,83.916-46.774,134.57-43.105C610.619,135.994,613.187,133.913,612.211,130.312z
		 M572.46,35.247c2.485,9.176,4.973,18.351,7.459,27.527c-10.655,0.351-20.062,2.501-30.026,6.235
		c-2.484-9.176-4.972-18.352-7.457-27.527C552.4,37.748,561.804,35.596,572.46,35.247z M468.08,138.121
		c-2.828-10.425-5.65-20.853-8.475-31.278c11.2-0.325,21.139-2.752,31.535-6.861c-2.487-9.176-4.973-18.352-7.458-27.528
		c10.162-4.542,19.747-9.981,29.346-15.598c2.486,9.175,4.975,18.351,7.459,27.527c-9.6,5.616-19.186,11.057-29.347,15.599
		c2.825,10.425,5.649,20.852,8.474,31.278C489.216,135.369,479.279,137.795,468.08,138.121z M507.181,159.19
		c-2.523-9.309-5.046-18.62-7.568-27.931c10.092-4.508,19.608-9.9,29.139-15.478c2.522,9.311,5.046,18.621,7.568,27.932
		C526.79,149.291,517.272,154.682,507.181,159.19z M528.959,115.662c-2.822-10.426-5.647-20.852-8.473-31.279
		c9.6-5.604,19.192-10.966,29.406-15.374c2.827,10.425,5.651,20.852,8.475,31.277C548.154,104.695,538.558,110.057,528.959,115.662z
		 M566.111,128.147c-2.523-9.31-5.045-18.621-7.568-27.932c9.907-3.694,19.264-5.818,29.848-6.163
		c2.523,9.311,5.047,18.621,7.57,27.931C585.373,122.329,576.017,124.452,566.111,128.147z"/>
</g>
</svg>
