<?xml version="1.0" encoding="utf-8"?>
<!-- Generator: Adobe Illustrator 16.0.0, SVG Export Plug-In . SVG Version: 6.00 Build 0)  -->
<!DOCTYPE svg PUBLIC "-//W3C//DTD SVG 1.1//EN" "http://www.w3.org/Graphics/SVG/1.1/DTD/svg11.dtd">
<svg version="1.1" id="Layer_1" xmlns="http://www.w3.org/2000/svg" xmlns:xlink="http://www.w3.org/1999/xlink" x="0px" y="0px"
	 width="1024px" height="768px" viewBox="0 0 1024 768" enable-background="new 0 0 1024 768" xml:space="preserve">
<path fill="#236533" d="M661.872,213.729c-6.171-26.682-37.556-49.289-81.284-61.015c0.128-1.721,0.193-3.46,0.193-5.215
	c0-37.979-30.798-68.782-68.781-68.782c-37.979,0-68.778,30.795-68.778,68.774c0,1.762,0.062,3.494,0.194,5.215
	c-43.729,11.726-75.108,34.333-81.288,61.015c-0.338,1.439,0.004,2.889,0.917,4.039c0.916,1.154,2.307,1.776,3.774,1.776h26.781
	c0,12.096,9.728,21.746,21.732,21.746c12.003,0,21.738-9.65,21.738-21.746h53.187c0,12.096,9.727,21.746,21.738,21.746
	c12.018,0,21.742-9.65,21.742-21.746h53.188c0,12.096,9.733,21.746,21.738,21.746c12.004,0,21.738-9.65,21.738-21.746h26.784
	c1.473,0,2.856-0.623,3.772-1.776C661.86,216.618,662.212,215.161,661.872,213.729z"/>
</svg>
